<svg width="210" height="24" viewBox="0 0 210 24" fill="none" xmlns="http://www.w3.org/2000/svg">
<path d="M4.58993 9.13776L5.63196 8.67415L10.3317 6.5826L11.3596 6.12607L22.7191 1.06885V7.16654L18.1257 9.13776L17.0872 8.67415L21.8898 6.61445V2.3535L12.3839 6.5826L11.3596 7.03913L6.67754 9.1236L5.63905 9.58367L2.3251 11.0594V12.153L5.58588 13.6075L6.62437 14.0676L11.4305 16.2051L12.4512 16.6617L21.8898 20.8589V16.5555L17.1368 14.517L18.1753 14.0534L22.7191 16.0034V22.1436L11.434 17.1217L10.4168 16.6687L5.57879 14.517L4.54031 14.0534L1.49219 12.698V10.5144L4.58993 9.13776Z" fill="#ED6430"/>
<path d="M12.4158 11.5831L17.0801 9.5836L16.0381 9.12354L10.2963 11.5831L16.0912 14.0675L17.1297 13.6074L12.4158 11.5831Z" fill="#ED6430"/>
<path d="M5.58588 13.6073L6.62436 14.0674L11.3596 12.0395L10.2998 11.583L5.58588 13.6073Z" fill="#447099"/>
<path d="M6.67762 9.12354L5.63913 9.5836L10.2999 11.5831L11.3597 11.1301L6.67762 9.12354Z" fill="#447099"/>
<path d="M18.1257 9.13776L17.0872 8.67415L12.3839 6.5826L11.3596 6.12607L0 1.06885V7.16654L4.5899 9.13776L5.63193 8.67415L0.829372 6.61445V2.3535L10.3317 6.5826L11.3596 7.03913L16.0416 9.1236L17.0801 9.58367L20.394 11.0594V12.153L17.1297 13.6075L16.0912 14.0676L11.2851 16.2051L10.2644 16.6617L0.829372 20.8589V16.5555L5.57877 14.517L4.54028 14.0534L0 16.0034V22.1436L11.2816 17.1217L12.3023 16.6687L17.1368 14.517L18.1753 14.0534L21.2234 12.698V10.5144L18.1257 9.13776Z" fill="#447099"/>
<path d="M48.3104 5.14209C52.3296 5.14209 55.1651 7.87419 55.1651 11.6715C55.1651 15.4689 52.3332 18.1762 48.3104 18.1762C44.2876 18.1762 41.5053 15.4441 41.5053 11.6715C41.5053 7.89897 44.2911 5.14209 48.3104 5.14209ZM48.3104 14.9097C50.2243 14.9097 51.5322 13.6994 51.5322 11.668C51.5322 9.63661 50.079 8.40504 48.3104 8.40504C46.5418 8.40504 45.1382 9.59061 45.1382 11.668C45.1382 13.5047 46.4213 14.9097 48.3104 14.9097Z" fill="#404041"/>
<path d="M70.6078 0.00341797C71.7455 0.00341797 72.5678 0.817387 72.5678 1.89324C72.5678 3.02218 71.7455 3.83615 70.6078 3.83615C69.3744 3.83615 68.623 3.02218 68.623 1.89324C68.623 0.764302 69.4453 0.00341797 70.6078 0.00341797ZM68.8392 5.37915H72.3516V17.9532H68.8392V5.37915Z" fill="#404041"/>
<path d="M73.9359 5.37938H76.3354V2.45264H79.8478V5.37938H83.6438V8.64234H79.8478V12.7263C79.8478 14.2481 80.188 14.8285 81.1308 14.8285C81.9531 14.8285 82.6088 14.5383 83.2858 14.0075L85.0757 16.2229C84.2038 17.143 82.5131 18.095 80.7941 18.095C78.1536 18.095 76.3389 16.6688 76.3389 13.7668V8.6388H73.9394V5.37585L73.9359 5.37938Z" fill="#404041"/>
<path d="M67.0209 6.91863C66.1596 6.09404 64.3768 5.02881 61.8391 5.02881C58.2274 5.02881 56.1043 6.51872 56.1043 8.96417C56.1043 12.758 62.158 12.85 63.5864 13.6887C63.8451 13.8338 63.9975 14.032 63.9054 14.3257C63.636 15.168 60.2441 15.5785 57.7418 13.1614L55.7003 15.5892C56.6076 16.7924 58.6137 18.2009 61.8639 18.2009C64.8836 18.2009 67.4958 16.98 67.4958 14.1913C67.4958 11.6927 65.1672 10.6877 63.0937 10.1002C62.5054 9.93739 61.9348 9.80291 61.4421 9.67197C60.6269 9.46317 59.5317 9.2296 59.7054 8.62089C60.0244 7.51318 63.6644 8.20682 64.9368 9.37115L67.0173 6.91863H67.0138H67.0209Z" fill="#404041"/>
<path d="M27.8349 5.41093H31.3509V6.06565C32.0066 5.46048 33.1939 5.14551 34.1651 5.14551C37.9965 5.14551 40.3747 7.7856 40.3747 11.5157C40.3747 15.2458 37.9008 18.2009 34.0658 18.2009C32.8537 18.2009 31.7372 18.0062 31.3473 17.5709V22.8511H27.8314V5.41093H27.8349ZM31.3509 9.84175V13.8621C31.7407 14.4424 32.5878 14.9273 33.5838 14.9273C35.5509 14.9273 36.7382 13.6922 36.7382 11.7776C36.7382 9.54802 35.6218 8.412 33.7787 8.412C32.6127 8.412 31.8152 8.99239 31.3544 9.84175" fill="#404041"/>
<path d="M87.4646 6.46561C87.4646 7.09556 86.9684 7.58748 86.3269 7.58748C85.6854 7.58748 85.1821 7.09202 85.1821 6.46561C85.1821 5.83921 85.6889 5.35791 86.3269 5.35791C86.9649 5.35791 87.4646 5.85337 87.4646 6.46561ZM85.4692 6.46561C85.4692 6.96107 85.8342 7.35036 86.334 7.35036C86.8337 7.35036 87.1811 6.95754 87.1811 6.47269C87.1811 5.98785 86.8231 5.58087 86.3269 5.58087C85.8307 5.58087 85.4692 5.98077 85.4692 6.46561ZM86.1532 7.04601H85.8945V5.93831C85.9973 5.91707 86.139 5.90291 86.3198 5.90291C86.5289 5.90291 86.6246 5.9383 86.7061 5.98431C86.7664 6.03032 86.8125 6.11879 86.8125 6.2285C86.8125 6.34883 86.7168 6.44438 86.5821 6.48685V6.501C86.6884 6.53993 86.7522 6.62133 86.7841 6.76997C86.8196 6.93984 86.8373 7.00708 86.8656 7.04601H86.5892C86.5537 7.00708 86.536 6.90445 86.5006 6.77705C86.4793 6.65672 86.412 6.6001 86.2702 6.6001H86.1497V7.04601H86.1532ZM86.1603 6.41607H86.2808C86.4226 6.41607 86.5396 6.37006 86.5396 6.25328C86.5396 6.15064 86.4651 6.0834 86.3021 6.0834C86.2347 6.0834 86.1851 6.09048 86.1603 6.09756V6.41607Z" fill="#404041"/>
<path d="M107.363 11.5692C107.247 12.0505 107.13 12.507 107.023 12.9635C106.92 13.4059 106.828 13.8377 106.75 14.2517C106.672 14.6693 106.609 15.0586 106.555 15.4373C106.502 15.1754 106.453 14.8887 106.399 14.5915C106.346 14.2907 106.282 13.9651 106.204 13.6395C106.127 13.2997 106.049 12.9635 105.956 12.6096C105.864 12.2593 105.761 11.9054 105.655 11.5409L102.511 1.07959H100.502L97.489 11.4736C97.3862 11.8134 97.2941 12.1637 97.2019 12.5035C97.1239 12.8432 97.046 13.1794 96.968 13.5192C96.9042 13.8589 96.8368 14.1845 96.773 14.5101C96.7199 14.8357 96.6703 15.1471 96.6313 15.4479C96.5923 15.1471 96.5391 14.8498 96.4895 14.549C96.4363 14.2482 96.3725 13.9368 96.3052 13.6112C96.2414 13.2856 96.1634 12.96 96.0819 12.6203C96.0039 12.2699 95.9118 11.9301 95.8196 11.5798L93.1188 1.07959H91.0844L95.5184 17.819H97.4748L100.711 6.56503C100.814 6.23944 100.906 5.8997 100.998 5.57411C101.09 5.24853 101.168 4.93709 101.232 4.65044C101.296 4.36378 101.349 4.10189 101.388 3.88247C101.441 3.65952 101.466 3.49318 101.48 3.37286C101.494 3.48965 101.533 3.65952 101.583 3.88247C101.636 4.11605 101.7 4.36378 101.778 4.66459C101.856 4.95125 101.934 5.26268 102.026 5.58827C102.118 5.91386 102.21 6.22529 102.313 6.55087L105.641 17.819H107.597L112.085 1.07959H110.036L107.36 11.5656L107.363 11.5692Z" fill="#404041"/>
<path d="M121.952 5.82509C121.091 5.31548 120.088 5.05713 118.939 5.05713C117.791 5.05713 116.696 5.30486 115.834 5.81094C114.973 6.32055 114.307 7.0602 113.839 8.02635C113.368 8.98895 113.134 10.1639 113.134 11.5299C113.134 12.5598 113.275 13.4835 113.552 14.2904C113.839 15.0973 114.229 15.7767 114.739 16.3359C115.25 16.8951 115.849 17.3127 116.554 17.6135C117.259 17.9143 118.028 18.0559 118.865 18.0559C119.765 18.0559 120.573 17.9108 121.293 17.6135C122.009 17.3127 122.611 16.8986 123.118 16.3359C123.628 15.7874 124.004 15.0973 124.281 14.2904C124.553 13.4835 124.685 12.5563 124.685 11.5299C124.685 10.1639 124.451 8.98895 123.969 8.0405C123.487 7.0779 122.82 6.33471 121.959 5.82509H121.952ZM122.303 14.1488C122.041 14.892 121.626 15.4653 121.062 15.8688C120.502 16.2722 119.783 16.481 118.911 16.481C118.039 16.481 117.32 16.2722 116.76 15.8688C116.2 15.4653 115.795 14.892 115.519 14.1488C115.246 13.4056 115.115 12.535 115.115 11.5299C115.115 9.99403 115.427 8.80846 116.029 7.93433C116.628 7.07436 117.596 6.64614 118.9 6.64614C119.786 6.64614 120.506 6.85494 121.066 7.24423C121.626 7.64767 122.03 8.20683 122.306 8.93941C122.583 9.67198 122.71 10.5284 122.71 11.5299C122.71 12.5315 122.579 13.4056 122.306 14.1488H122.303Z" fill="#404041"/>
<path d="M133.092 5.04297C132.503 5.04297 131.958 5.15976 131.476 5.39333C130.993 5.6269 130.561 5.92772 130.196 6.31701C129.831 6.7063 129.519 7.1239 129.257 7.59458H129.179L128.97 5.27654H127.392V17.8081H129.31V11.0734C129.31 10.4222 129.402 9.83477 129.597 9.30038C129.792 8.76599 130.054 8.30946 130.394 7.93433C130.735 7.55566 131.125 7.269 131.568 7.0602C132.011 6.86555 132.482 6.75938 132.989 6.75938C133.198 6.75938 133.446 6.78416 133.694 6.81247C133.957 6.8514 134.176 6.89032 134.385 6.94341L134.619 5.18453C134.41 5.1456 134.162 5.10667 133.889 5.0819C133.616 5.05712 133.34 5.04297 133.092 5.04297Z" fill="#404041"/>
<path d="M146.163 5.26602H143.934L139.759 9.70746C139.549 9.94104 139.291 10.256 138.975 10.6453C138.663 11.0346 138.426 11.3354 138.27 11.53H138.192C138.206 11.1903 138.217 10.8152 138.245 10.3693C138.274 9.92334 138.284 9.54821 138.284 9.24739V0H136.391V17.8082H138.27V13.2606L139.798 11.8662L144.235 17.8047H146.532L141.105 10.6134L146.167 5.25895L146.163 5.26602Z" fill="#404041"/>
<path d="M154.032 5.04307C153.014 5.04307 152.192 5.23771 151.54 5.63054C150.888 6.01983 150.392 6.50467 150.051 7.06383H149.949C149.963 6.80195 149.987 6.42681 150.012 5.94197C150.037 5.46067 150.051 4.96521 150.051 4.45559V0H148.159V17.7941H149.527L149.917 16.113H150.058C150.399 16.6474 150.895 17.104 151.533 17.4685C152.171 17.8472 152.993 18.0276 153.985 18.0276C155.056 18.0276 155.967 17.7799 156.75 17.2844C157.533 16.789 158.132 16.0458 158.565 15.0832C158.994 14.1206 159.203 12.9209 159.203 11.5124C159.203 9.3748 158.731 7.74686 157.792 6.66747C156.853 5.58453 155.602 5.03953 154.021 5.03953L154.032 5.04307ZM156.367 15.1929C155.779 16.0387 154.907 16.4705 153.73 16.4705C152.334 16.4705 151.38 16.0529 150.849 15.2212C150.314 14.386 150.051 13.1757 150.051 11.6008V11.4982C150.051 10.4046 150.168 9.50574 150.402 8.78732C150.636 8.07245 151.015 7.53806 151.551 7.18416C152.086 6.8338 152.802 6.64977 153.716 6.64977C154.903 6.64977 155.79 7.06737 156.378 7.88842C156.952 8.69531 157.239 9.9198 157.239 11.5371C157.239 13.1544 156.952 14.3365 156.364 15.1964L156.367 15.1929Z" fill="#404041"/>
<path d="M169.517 5.74723C168.748 5.27654 167.833 5.04297 166.763 5.04297C165.639 5.04297 164.661 5.31547 163.839 5.83924C163.002 6.37363 162.364 7.12744 161.907 8.11836C161.45 9.10927 161.23 10.2665 161.23 11.622C161.23 12.9774 161.478 14.1736 161.974 15.1256C162.471 16.0882 163.162 16.8066 164.062 17.302C164.962 17.7975 166.004 18.0452 167.22 18.0452C168.067 18.0452 168.797 17.9815 169.425 17.8506C170.052 17.7338 170.676 17.525 171.317 17.2383V15.5573C170.651 15.8298 170.027 16.0528 169.414 16.1943C168.801 16.3359 168.096 16.4173 167.302 16.4173C166.011 16.4173 165.005 16.028 164.3 15.2565C163.594 14.4885 163.229 13.3667 163.204 11.8945H171.881V10.7089C171.881 9.57642 171.672 8.57135 171.268 7.72553C170.864 6.87971 170.289 6.21438 169.52 5.74723H169.517ZM163.229 10.3833C163.346 9.18359 163.711 8.25992 164.31 7.59459C164.909 6.92925 165.721 6.60367 166.738 6.60367C167.468 6.60367 168.057 6.75938 168.5 7.07435C168.957 7.38578 169.308 7.82816 169.531 8.40148C169.754 8.97479 169.871 9.64012 169.882 10.3798H163.229V10.3833Z" fill="#404041"/>
<path d="M180.476 5.04297C179.916 5.04297 179.381 5.12083 178.86 5.27654C178.349 5.43226 177.896 5.66583 177.477 5.96665C177.073 6.26746 176.733 6.6426 176.46 7.08851H176.357L176.07 5.27654H174.532V17.8223H176.435V11.2574C176.435 9.76045 176.722 8.61382 177.282 7.8317C177.842 7.03542 178.821 6.64613 180.217 6.64613C181.195 6.64613 181.925 6.90802 182.407 7.42825C182.889 7.94848 183.123 8.7306 183.123 9.7746V17.8258H185.002V9.64366C185.002 8.0405 184.623 6.86909 183.854 6.14006C183.099 5.41103 181.961 5.04651 180.476 5.04651V5.04297Z" fill="#404041"/>
<path d="M191.318 7.25862C191.906 6.87995 192.622 6.69947 193.498 6.69947C193.941 6.69947 194.412 6.76317 194.908 6.88349C195.419 7.01444 195.862 7.14538 196.238 7.30109L196.812 5.71209C196.447 5.52806 195.965 5.37234 195.376 5.24494C194.788 5.114 194.189 5.05029 193.562 5.05029C192.413 5.05029 191.41 5.28387 190.51 5.75455C189.624 6.2217 188.918 6.94012 188.408 7.90272C187.898 8.86533 187.653 10.104 187.653 11.6293C187.653 13.1546 187.887 14.2871 188.369 15.2391C188.851 16.191 189.532 16.8918 190.393 17.3625C191.254 17.8331 192.247 18.0667 193.381 18.0667C194.086 18.0667 194.685 18.0278 195.206 17.911C195.727 17.7942 196.199 17.6243 196.617 17.4155V15.7239C196.174 15.9079 195.692 16.0743 195.156 16.2194C194.621 16.3645 194.022 16.4282 193.356 16.4282C192.52 16.4282 191.818 16.2335 191.268 15.8548C190.708 15.4762 190.29 14.9312 190.017 14.2127C189.744 13.4837 189.599 12.6237 189.599 11.608C189.599 10.5393 189.744 9.65453 190.028 8.92549C190.315 8.19646 190.744 7.64791 191.318 7.27278V7.25862Z" fill="#404041"/>
<path d="M208.983 7.02515C208.643 6.35982 208.136 5.86436 207.455 5.53877C206.778 5.21319 205.928 5.05747 204.925 5.05747C204.35 5.05747 203.801 5.13533 203.294 5.29104C202.784 5.44676 202.33 5.68033 201.922 5.98115C201.518 6.28196 201.192 6.6571 200.93 7.10301H200.799C200.838 6.85528 200.863 6.56862 200.877 6.25719C200.891 5.94576 200.902 5.63079 200.902 5.33351V0.00732422H199.009V17.8262H200.912V11.2613C200.912 10.2704 201.043 9.43875 201.277 8.74864C201.511 8.05854 201.915 7.5383 202.465 7.18441C203.025 6.83404 203.769 6.65002 204.694 6.65002C205.672 6.65002 206.402 6.9119 206.885 7.43214C207.367 7.95237 207.6 8.73449 207.6 9.77849V17.8155H209.479V9.63339C209.479 8.56462 209.309 7.70464 208.969 7.02869L208.983 7.02515Z" fill="#404041"/>
</svg>
