<svg width="274" height="24" viewBox="0 0 274 24" fill="none" xmlns="http://www.w3.org/2000/svg">
<path d="M95.2997 1.08105C97.4642 1.08105 99.043 1.49956 100.036 2.3475C101.029 3.19544 101.535 4.39637 101.535 5.97579C101.535 6.6818 101.418 7.35869 101.182 7.99919C100.946 8.63969 100.567 9.20013 100.047 9.68415C99.5268 10.1682 98.8465 10.5576 97.9989 10.8341C97.1513 11.1071 96.1182 11.2526 94.8922 11.2526H92.8551V17.8433H90.9125V1.08469H95.296L95.2997 1.08105ZM95.1141 2.74053H92.8696V9.57861H94.6958C95.7653 9.57861 96.6529 9.46216 97.3696 9.24017C98.0862 9.00362 98.621 8.6397 98.9739 8.11929C99.3376 7.59888 99.5086 6.91835 99.5086 6.05586C99.5086 4.93498 99.1558 4.11252 98.4391 3.563C97.7334 3.01348 96.6238 2.74053 95.1105 2.74053H95.1141Z" fill="#414142"/>
<path d="M108.869 5.07666C110.367 5.07666 111.477 5.41511 112.208 6.08108C112.939 6.76161 113.292 7.83154 113.292 9.30542V17.8539H111.91L111.546 16.0016H111.455C111.102 16.4601 110.739 16.8495 110.36 17.1516C109.982 17.4645 109.538 17.7011 109.029 17.8576C108.534 18.0141 107.919 18.0941 107.188 18.0941C106.417 18.0941 105.74 17.9631 105.151 17.6902C104.565 17.4172 104.092 17.0096 103.754 16.4747C103.416 15.9251 103.245 15.2483 103.245 14.4112C103.245 13.1593 103.739 12.1913 104.732 11.5253C105.726 10.8448 107.239 10.4809 109.272 10.4299L111.437 10.339V9.56745C111.437 8.48296 111.201 7.71509 110.731 7.28202C110.262 6.85259 109.611 6.6306 108.76 6.6306C108.108 6.6306 107.479 6.72158 106.879 6.9181C106.279 7.11462 105.718 7.33661 105.184 7.59863L104.598 6.15023C105.158 5.86273 105.813 5.61526 106.54 5.40783C107.268 5.20039 108.054 5.0803 108.861 5.0803L108.869 5.07666ZM111.412 11.6564L109.494 11.7364C107.93 11.8019 106.821 12.0494 106.18 12.5079C105.54 12.9665 105.216 13.5924 105.216 14.4258C105.216 15.1427 105.438 15.6777 105.867 16.0198C106.297 16.3619 106.886 16.5402 107.603 16.5402C108.723 16.5402 109.64 16.2272 110.342 15.6122C111.044 14.9971 111.412 14.0582 111.412 12.8173V11.6564Z" fill="#414142"/>
<path d="M121.67 18.0905C120.535 18.0905 119.542 17.854 118.683 17.3845C117.821 16.915 117.145 16.209 116.661 15.2556C116.177 14.3021 115.944 13.0902 115.944 11.6382C115.944 10.1097 116.191 8.87239 116.701 7.90436C117.21 6.93997 117.916 6.21941 118.8 5.74995C119.698 5.28049 120.706 5.04395 121.852 5.04395C122.478 5.04395 123.078 5.10945 123.667 5.24046C124.253 5.37147 124.737 5.52796 125.104 5.70992L124.529 7.30389C124.151 7.14741 123.707 7.0164 123.198 6.88539C122.703 6.76893 122.234 6.70343 121.79 6.70343C120.917 6.70343 120.197 6.88539 119.611 7.26386C119.036 7.64234 118.607 8.19186 118.32 8.92334C118.032 9.65482 117.89 10.5428 117.89 11.6127C117.89 12.6826 118.032 13.4942 118.309 14.222C118.582 14.939 119 15.4885 119.56 15.867C120.109 16.2454 120.811 16.442 121.648 16.442C122.314 16.442 122.914 16.3764 123.449 16.2345C123.984 16.0926 124.467 15.9215 124.911 15.7396V17.4355C124.493 17.6429 124.024 17.8139 123.503 17.9304C122.983 18.0468 122.383 18.0869 121.677 18.0869L121.67 18.0905Z" fill="#414142"/>
<path d="M129.186 0V9.26907C129.186 9.56748 129.171 9.9496 129.146 10.3899C129.12 10.8339 129.106 11.2124 129.095 11.5509H129.175C129.331 11.3543 129.568 11.0559 129.881 10.6629C130.193 10.2699 130.455 9.95688 130.663 9.72397L134.839 5.27322H137.069L132.005 10.6374L137.433 17.8431H135.137L130.699 11.8893L129.171 13.2868V17.8431H127.28V0H129.186Z" fill="#414142"/>
<path d="M143.744 5.07666C145.243 5.07666 146.353 5.41511 147.084 6.08108C147.815 6.76161 148.168 7.83154 148.168 9.30542V17.8539H146.786L146.422 16.0016H146.331C145.978 16.4601 145.614 16.8495 145.236 17.1516C144.858 17.4645 144.414 17.7011 143.904 17.8576C143.41 18.0141 142.795 18.0941 142.064 18.0941C141.293 18.0941 140.616 17.9631 140.027 17.6902C139.441 17.4172 138.968 17.0096 138.63 16.4747C138.291 15.9251 138.12 15.2483 138.12 14.4112C138.12 13.1593 138.615 12.1913 139.608 11.5253C140.601 10.8448 142.115 10.4809 144.148 10.4299L146.313 10.339V9.56745C146.313 8.48296 146.076 7.71509 145.607 7.28202C145.138 6.85259 144.487 6.6306 143.635 6.6306C142.984 6.6306 142.355 6.72158 141.755 6.9181C141.154 7.11462 140.594 7.33661 140.059 7.59863L139.474 6.15023C140.034 5.86273 140.689 5.61526 141.416 5.40783C142.144 5.20039 142.93 5.0803 143.737 5.0803L143.744 5.07666ZM146.291 11.6564L144.374 11.7364C142.809 11.8019 141.7 12.0494 141.06 12.5079C140.419 12.9665 140.096 13.5924 140.096 14.4258C140.096 15.1427 140.318 15.6777 140.747 16.0198C141.176 16.3619 141.765 16.5402 142.482 16.5402C143.603 16.5402 144.519 16.2272 145.221 15.6122C145.923 14.9971 146.291 14.0582 146.291 12.8173V11.6564Z" fill="#414142"/>
<path d="M155.018 23.4945C153.359 23.4945 152.097 23.1815 151.195 22.5665C150.296 21.9515 149.852 21.0926 149.852 19.9827C149.852 19.2002 150.1 18.5197 150.609 17.9593C151.104 17.3988 151.809 17.0313 152.697 16.8493C152.37 16.6928 152.082 16.4708 151.849 16.1579C151.613 15.8595 151.497 15.5064 151.497 15.0989C151.497 14.6403 151.628 14.2364 151.875 13.8834C152.137 13.5304 152.526 13.2028 153.05 12.8789C152.399 12.606 151.864 12.162 151.446 11.5215C151.042 10.881 150.831 10.1386 150.831 9.29068C150.831 8.39179 151.013 7.62028 151.391 6.97978C151.769 6.33927 152.304 5.8589 153.021 5.51681C153.727 5.17837 154.585 5.00732 155.604 5.00732C155.826 5.00732 156.047 5.02188 156.269 5.0328C156.491 5.04736 156.713 5.08375 156.921 5.11286C157.128 5.14198 157.313 5.19292 157.455 5.22932H161.762V6.45573L159.442 6.74323C159.678 7.04164 159.86 7.39465 160.016 7.82771C160.173 8.24622 160.253 8.71568 160.253 9.22517C160.253 10.4771 159.824 11.4706 158.972 12.213C158.125 12.9554 156.964 13.3229 155.476 13.3229C155.123 13.3229 154.771 13.2974 154.392 13.2319C154.014 13.4394 153.727 13.6614 153.545 13.9234C153.363 14.1854 153.257 14.4729 153.257 14.7968C153.257 15.0443 153.337 15.2408 153.479 15.3827C153.621 15.5246 153.843 15.6302 154.13 15.6957C154.418 15.7612 154.756 15.7867 155.149 15.7867H157.368C158.739 15.7867 159.784 16.0742 160.511 16.6492C161.242 17.2242 161.606 18.0575 161.606 19.1566C161.606 20.554 161.046 21.6094 159.911 22.3554C158.79 23.127 157.157 23.4909 155.018 23.4909V23.4945ZM155.073 22.0061C156.117 22.0061 156.979 21.9005 157.655 21.6931C158.336 21.4857 158.856 21.1836 159.194 20.7942C159.533 20.4012 159.703 19.9317 159.703 19.3858C159.703 18.8764 159.587 18.4979 159.365 18.2504C159.129 17.9884 158.805 17.821 158.361 17.73C157.917 17.639 157.368 17.599 156.731 17.599H154.552C153.992 17.599 153.494 17.69 153.079 17.861C152.661 18.0321 152.337 18.2904 152.115 18.6434C151.893 18.9819 151.777 19.415 151.777 19.9244C151.777 20.605 152.064 21.1254 152.639 21.4784C153.214 21.8314 154.021 22.0134 155.08 22.0134L155.073 22.0061ZM155.567 11.9546C156.48 11.9546 157.161 11.718 157.615 11.2631C158.074 10.8046 158.307 10.1423 158.307 9.25428C158.307 8.31537 158.07 7.60936 157.601 7.1399C157.132 6.67044 156.451 6.4339 155.538 6.4339C154.625 6.4339 153.999 6.68136 153.53 7.16538C153.061 7.64939 152.824 8.36632 152.824 9.29431C152.824 10.1568 153.061 10.8082 153.53 11.2668C154.014 11.7362 154.691 11.9582 155.567 11.9582V11.9546Z" fill="#414142"/>
<path d="M168.511 5.051C169.58 5.051 170.493 5.28755 171.264 5.75701C172.036 6.22647 172.607 6.89244 173.014 7.74038C173.418 8.58832 173.629 9.59274 173.629 10.7282V11.9146H164.953C164.978 13.3884 165.346 14.513 166.048 15.2808C166.754 16.0523 167.758 16.4417 169.049 16.4417C169.846 16.4417 170.548 16.3617 171.163 16.2197C171.777 16.0778 172.403 15.8558 173.069 15.5792V17.2642C172.428 17.5517 171.803 17.7591 171.177 17.8792C170.551 18.0102 169.82 18.0757 168.973 18.0757C167.758 18.0757 166.713 17.8283 165.815 17.3333C164.916 16.8384 164.222 16.1178 163.727 15.1535C163.232 14.2 162.985 13.0245 162.985 11.6416C162.985 10.2587 163.207 9.12328 163.665 8.12978C164.123 7.13627 164.76 6.37932 165.597 5.84435C166.419 5.32394 167.397 5.04736 168.518 5.04736L168.511 5.051ZM168.485 6.61586C167.467 6.61586 166.659 6.94339 166.059 7.60937C165.458 8.27534 165.095 9.20334 164.975 10.4043H171.628C171.614 9.66188 171.497 8.99591 171.275 8.42091C171.053 7.84592 170.701 7.40193 170.246 7.08896C169.802 6.77599 169.216 6.6195 168.485 6.6195V6.61586Z" fill="#414142"/>
<path d="M189.453 17.8542L183.818 3.01347H183.727C183.753 3.32645 183.778 3.70492 183.807 4.16347C183.833 4.62201 183.847 5.10238 183.858 5.63735C183.873 6.17231 183.884 6.70727 183.884 7.25679V17.8542H182.069V1.08105H184.953L190.265 15.0338H190.345L195.747 1.08105H198.617V17.8542H196.685V7.11123C196.685 6.61629 196.7 6.11772 196.711 5.61187C196.725 5.11694 196.751 4.63292 196.762 4.18894C196.773 3.74496 196.813 3.35192 196.827 3.02803H196.736L191.036 17.8578H189.457L189.453 17.8542Z" fill="#414142"/>
<path d="M207.028 5.07666C208.526 5.07666 209.636 5.41511 210.367 6.08108C211.098 6.76161 211.451 7.83154 211.451 9.30542V17.8539H210.069L209.705 16.0016H209.614C209.261 16.4601 208.897 16.8495 208.519 17.1516C208.141 17.4645 207.697 17.7011 207.188 17.8576C206.693 18.0141 206.078 18.0941 205.347 18.0941C204.576 18.0941 203.899 17.9631 203.31 17.6902C202.724 17.4172 202.251 17.0096 201.913 16.4747C201.575 15.9251 201.404 15.2483 201.404 14.4112C201.404 13.1593 201.898 12.1913 202.891 11.5253C203.885 10.8448 205.398 10.4809 207.431 10.4299L209.596 10.339V9.56745C209.596 8.48296 209.359 7.71509 208.89 7.28202C208.421 6.85259 207.77 6.6306 206.919 6.6306C206.267 6.6306 205.638 6.72158 205.038 6.9181C204.437 7.11462 203.877 7.33661 203.343 7.59863L202.757 6.15023C203.317 5.86273 203.972 5.61526 204.699 5.40783C205.427 5.20039 206.213 5.0803 207.02 5.0803L207.028 5.07666ZM209.574 11.6564L207.657 11.7364C206.093 11.8019 204.983 12.0494 204.343 12.5079C203.703 12.9665 203.379 13.5924 203.379 14.4258C203.379 15.1427 203.601 15.6777 204.03 16.0198C204.459 16.3582 205.049 16.5402 205.765 16.5402C206.886 16.5402 207.802 16.2272 208.505 15.6122C209.207 14.9971 209.574 14.0582 209.574 12.8173V11.6564Z" fill="#414142"/>
<path d="M220.742 5.05127C222.23 5.05127 223.365 5.41519 224.122 6.14667C224.893 6.87815 225.271 8.05362 225.271 9.65851V17.8576H223.391V9.78952C223.391 8.74507 223.154 7.96264 222.674 7.43859C222.19 6.91818 221.459 6.65616 220.48 6.65616C219.083 6.65616 218.105 7.0492 217.545 7.84254C216.984 8.62497 216.697 9.77496 216.697 11.2743V17.854H214.791V5.28418H216.33L216.617 7.10014H216.722C216.995 6.65616 217.337 6.27768 217.741 5.97927C218.159 5.68085 218.614 5.4443 219.123 5.28782C219.633 5.13133 220.182 5.05127 220.742 5.05127Z" fill="#414142"/>
<path d="M233.307 5.07666C234.806 5.07666 235.915 5.41511 236.647 6.08108C237.378 6.76161 237.731 7.83154 237.731 9.30542V17.8539H236.348L235.985 16.0016H235.894C235.541 16.4601 235.177 16.8495 234.799 17.1516C234.42 17.4645 233.977 17.7011 233.467 17.8576C232.972 18.0141 232.358 18.0941 231.627 18.0941C230.855 18.0941 230.179 17.9631 229.589 17.6902C229 17.4172 228.531 17.0096 228.192 16.4747C227.854 15.9251 227.683 15.2483 227.683 14.4112C227.683 13.1593 228.178 12.1913 229.171 11.5253C230.164 10.8448 231.677 10.4809 233.711 10.4299L235.875 10.339V9.56745C235.875 8.48296 235.639 7.71509 235.17 7.28202C234.7 6.85259 234.049 6.6306 233.198 6.6306C232.547 6.6306 231.918 6.72158 231.317 6.9181C230.717 7.11462 230.157 7.33661 229.622 7.59863L229.036 6.15023C229.597 5.86273 230.251 5.61526 230.979 5.40783C231.707 5.20039 232.492 5.0803 233.3 5.0803L233.307 5.07666ZM235.854 11.6564L233.937 11.7364C232.372 11.8019 231.263 12.0494 230.622 12.5079C229.982 12.9665 229.658 13.5924 229.658 14.4258C229.658 15.1427 229.88 15.6777 230.31 16.0198C230.739 16.3619 231.328 16.5402 232.045 16.5402C233.165 16.5402 234.082 16.2272 234.784 15.6122C235.49 14.9971 235.854 14.0582 235.854 12.8173V11.6564Z" fill="#414142"/>
<path d="M244.581 23.4945C242.922 23.4945 241.66 23.1815 240.758 22.5665C239.859 21.9515 239.415 21.0926 239.415 19.9827C239.415 19.2002 239.663 18.5197 240.172 17.9593C240.667 17.3988 241.372 17.0313 242.26 16.8493C241.933 16.6928 241.645 16.4708 241.412 16.1579C241.176 15.8595 241.059 15.5064 241.059 15.0989C241.059 14.6403 241.19 14.2364 241.438 13.8834C241.7 13.5304 242.089 13.2028 242.613 12.8789C241.962 12.606 241.427 12.162 241.009 11.5215C240.605 10.881 240.394 10.1386 240.394 9.29068C240.394 8.39179 240.576 7.62028 240.954 6.97978C241.332 6.33927 241.867 5.8589 242.584 5.51681C243.289 5.17837 244.148 5.00732 245.167 5.00732C245.388 5.00732 245.61 5.02188 245.832 5.0328C246.054 5.04736 246.276 5.08375 246.483 5.11286C246.691 5.14198 246.876 5.19292 247.018 5.22932H251.325V6.45573L249.004 6.74323C249.241 7.04164 249.423 7.39465 249.579 7.82771C249.736 8.24622 249.816 8.71568 249.816 9.22517C249.816 10.4771 249.386 11.4706 248.535 12.213C247.688 12.9554 246.527 13.3229 245.039 13.3229C244.686 13.3229 244.333 13.2974 243.955 13.2319C243.577 13.4394 243.289 13.6614 243.108 13.9234C242.926 14.1854 242.82 14.4729 242.82 14.7968C242.82 15.0443 242.9 15.2408 243.042 15.3827C243.184 15.5246 243.406 15.6302 243.693 15.6957C243.981 15.7612 244.319 15.7867 244.712 15.7867H246.931C248.302 15.7867 249.346 16.0742 250.074 16.6492C250.805 17.2242 251.169 18.0575 251.169 19.1566C251.169 20.554 250.609 21.6094 249.474 22.3554C248.353 23.127 246.72 23.4909 244.581 23.4909V23.4945ZM244.635 22.0061C245.679 22.0061 246.542 21.9005 247.218 21.6931C247.899 21.4857 248.419 21.1836 248.757 20.7942C249.095 20.4012 249.266 19.9317 249.266 19.3858C249.266 18.8764 249.15 18.4979 248.928 18.2504C248.692 17.9884 248.368 17.821 247.924 17.73C247.48 17.639 246.931 17.599 246.294 17.599H244.115C243.555 17.599 243.057 17.69 242.642 17.861C242.224 18.0321 241.9 18.2904 241.678 18.6434C241.456 18.9819 241.34 19.415 241.34 19.9244C241.34 20.605 241.627 21.1254 242.202 21.4784C242.777 21.8314 243.584 22.0134 244.643 22.0134L244.635 22.0061ZM245.13 11.9546C246.043 11.9546 246.724 11.718 247.178 11.2631C247.637 10.8046 247.869 10.1423 247.869 9.25428C247.869 8.31537 247.633 7.60936 247.164 7.1399C246.694 6.67044 246.014 6.4339 245.101 6.4339C244.188 6.4339 243.562 6.68136 243.093 7.16538C242.624 7.64939 242.387 8.36632 242.387 9.29431C242.387 10.1568 242.624 10.8082 243.093 11.2668C243.577 11.7362 244.253 11.9582 245.13 11.9582V11.9546Z" fill="#414142"/>
<path d="M258.073 5.051C259.143 5.051 260.056 5.28755 260.827 5.75701C261.598 6.22647 262.17 6.89244 262.577 7.74038C262.981 8.58832 263.192 9.59274 263.192 10.7282V11.9146H254.516C254.541 13.3884 254.909 14.513 255.611 15.2808C256.316 16.0523 257.32 16.4417 258.612 16.4417C259.409 16.4417 260.111 16.3617 260.725 16.2197C261.34 16.0778 261.966 15.8558 262.632 15.5792V17.2642C261.991 17.5517 261.366 17.7591 260.74 17.8792C260.114 18.0102 259.383 18.0757 258.535 18.0757C257.32 18.0757 256.276 17.8283 255.378 17.3333C254.479 16.8384 253.784 16.1178 253.29 15.1535C252.795 14.2 252.548 13.0245 252.548 11.6416C252.548 10.2587 252.77 9.12328 253.228 8.12978C253.686 7.13627 254.323 6.37932 255.16 5.84435C255.982 5.32394 256.96 5.04736 258.081 5.04736L258.073 5.051ZM258.048 6.61586C257.029 6.61586 256.222 6.94339 255.622 7.60937C255.021 8.27534 254.658 9.20334 254.537 10.4043H261.191C261.177 9.66188 261.06 8.99591 260.838 8.42091C260.616 7.84592 260.263 7.40193 259.809 7.08896C259.365 6.77599 258.765 6.6195 258.048 6.6195V6.61586Z" fill="#414142"/>
<path d="M271.552 5.05122C271.799 5.05122 272.072 5.06578 272.348 5.09125C272.625 5.11673 272.868 5.15676 273.079 5.19679L272.843 6.95817C272.636 6.90722 272.414 6.86719 272.152 6.82716C271.904 6.80168 271.657 6.77621 271.446 6.77621C270.937 6.77621 270.467 6.88175 270.024 7.07462C269.58 7.28206 269.187 7.56956 268.849 7.94804C268.51 8.32651 268.248 8.78505 268.052 9.32002C267.855 9.85498 267.765 10.4409 267.765 11.096V17.8431H265.847V5.28413H267.426L267.634 7.60595H267.714C267.976 7.13649 268.288 6.71798 268.652 6.32495C269.016 5.93191 269.449 5.6335 269.933 5.39695C270.402 5.1604 270.951 5.04395 271.552 5.04395V5.05122Z" fill="#414142"/>
<path d="M4.58127 9.13776L5.62134 8.67415L10.3122 6.5826L11.3382 6.12607L22.6763 1.06885V7.16654L18.0915 9.13776L17.055 8.67415L21.8485 6.61445V2.3535L12.3605 6.5826L11.3382 7.03913L6.66494 9.1236L5.62841 9.58367L2.32072 11.0594V12.153L5.57535 13.6075L6.61188 14.0676L11.4089 16.2051L12.4277 16.6617L21.8485 20.8589V16.5555L17.1045 14.517L18.141 14.0534L22.6763 16.0034V22.1436L11.4124 17.1217L10.3971 16.6687L5.56827 14.517L4.53175 14.0534L1.48938 12.698V10.5144L4.58127 9.13776Z" fill="#ED6430"/>
<path d="M12.3924 11.5831L17.0479 9.5836L16.0078 9.12354L10.2769 11.5831L16.0609 14.0675L17.0974 13.6074L12.3924 11.5831Z" fill="#ED6430"/>
<path d="M5.57532 13.6073L6.61184 14.0674L11.3381 12.0395L10.2804 11.583L5.57532 13.6073Z" fill="#447099"/>
<path d="M6.66507 9.12354L5.62854 9.5836L10.2805 11.5831L11.3383 11.1301L6.66507 9.12354Z" fill="#447099"/>
<path d="M18.0915 9.13776L17.0549 8.67415L12.3605 6.5826L11.3381 6.12607L0 1.06885V7.16654L4.58124 9.13776L5.6213 8.67415L0.827807 6.61445V2.3535L10.3122 6.5826L11.3381 7.03913L16.0113 9.1236L17.0479 9.58367L20.3556 11.0594V12.153L17.0974 13.6075L16.0609 14.0676L11.2638 16.2051L10.245 16.6617L0.827807 20.8589V16.5555L5.56824 14.517L4.53171 14.0534L0 16.0034V22.1436L11.2603 17.1217L12.2791 16.6687L17.1045 14.517L18.141 14.0534L21.1834 12.698V10.5144L18.0915 9.13776Z" fill="#447099"/>
<path d="M48.2193 5.14209C52.2309 5.14209 55.0611 7.87419 55.0611 11.6715C55.0611 15.4689 52.2345 18.1762 48.2193 18.1762C44.204 18.1762 41.427 15.4441 41.427 11.6715C41.427 7.89897 44.2076 5.14209 48.2193 5.14209ZM48.2193 14.9097C50.1296 14.9097 51.435 13.6994 51.435 11.668C51.435 9.63661 49.9845 8.40504 48.2193 8.40504C46.454 8.40504 45.0531 9.59061 45.0531 11.668C45.0531 13.5047 46.3337 14.9097 48.2193 14.9097Z" fill="#404041"/>
<path d="M70.4746 0.00341797C71.6102 0.00341797 72.4309 0.817387 72.4309 1.89324C72.4309 3.02218 71.6102 3.83615 70.4746 3.83615C69.2435 3.83615 68.4935 3.02218 68.4935 1.89324C68.4935 0.764302 69.3143 0.00341797 70.4746 0.00341797ZM68.7093 5.37915H72.2151V17.9532H68.7093V5.37915Z" fill="#404041"/>
<path d="M73.7964 5.37938H76.1914V2.45264H79.6972V5.37938H83.486V8.64234H79.6972V12.7263C79.6972 14.2481 80.0368 14.8285 80.9778 14.8285C81.7985 14.8285 82.453 14.5383 83.1287 14.0075L84.9152 16.2229C84.0449 17.143 82.3575 18.095 80.6417 18.095C78.0062 18.095 76.1949 16.6688 76.1949 13.7668V8.6388H73.7999V5.37585L73.7964 5.37938Z" fill="#404041"/>
<path d="M66.8944 6.91863C66.0348 6.09404 64.2554 5.02881 61.7224 5.02881C58.1176 5.02881 55.9985 6.51872 55.9985 8.96417C55.9985 12.758 62.0408 12.85 63.4665 13.6887C63.7247 13.8338 63.8768 14.032 63.7848 14.3257C63.516 15.168 60.1305 15.5785 57.6329 13.1614L55.5952 15.5892C56.5008 16.7924 58.5032 18.2009 61.7472 18.2009C64.7612 18.2009 67.3685 16.98 67.3685 14.1913C67.3685 11.6927 65.0442 10.6877 62.9747 10.1002C62.3875 9.93739 61.8179 9.80291 61.3262 9.67197C60.5125 9.46317 59.4194 9.2296 59.5927 8.62089C59.9111 7.51318 63.5443 8.20682 64.8143 9.37115L66.8909 6.91863H66.8873H66.8944Z" fill="#404041"/>
<path d="M27.7823 5.41093H31.2917V6.06565C31.9461 5.46048 33.1312 5.14551 34.1006 5.14551C37.9247 5.14551 40.2985 7.7856 40.2985 11.5157C40.2985 15.2458 37.8292 18.2009 34.0015 18.2009C32.7916 18.2009 31.6773 18.0062 31.2881 17.5709V22.8511H27.7788V5.41093H27.7823ZM31.2917 9.84175V13.8621C31.6808 14.4424 32.5263 14.9273 33.5204 14.9273C35.4838 14.9273 36.6689 13.6922 36.6689 11.7776C36.6689 9.54802 35.5545 8.412 33.715 8.412C32.5511 8.412 31.7551 8.99239 31.2952 9.84175" fill="#404041"/>
<path d="M87.2996 6.46561C87.2996 7.09556 86.8043 7.58748 86.164 7.58748C85.5237 7.58748 85.0214 7.09202 85.0214 6.46561C85.0214 5.83921 85.5272 5.35791 86.164 5.35791C86.8008 5.35791 87.2996 5.85337 87.2996 6.46561ZM85.3079 6.46561C85.3079 6.96107 85.6723 7.35036 86.1711 7.35036C86.6699 7.35036 87.0166 6.95754 87.0166 6.47269C87.0166 5.98785 86.6593 5.58087 86.164 5.58087C85.6688 5.58087 85.3079 5.98077 85.3079 6.46561ZM85.9907 7.04601H85.7324V5.93831C85.835 5.91707 85.9765 5.90291 86.157 5.90291C86.3657 5.90291 86.4612 5.9383 86.5426 5.98431C86.6027 6.03032 86.6487 6.11879 86.6487 6.2285C86.6487 6.34883 86.5532 6.44438 86.4187 6.48685V6.501C86.5249 6.53993 86.5885 6.62133 86.6204 6.76997C86.6558 6.93984 86.6734 7.00708 86.7017 7.04601H86.4258C86.3904 7.00708 86.3727 6.90445 86.3374 6.77705C86.3161 6.65672 86.2489 6.6001 86.1074 6.6001H85.9871V7.04601H85.9907ZM85.9978 6.41607H86.118C86.2595 6.41607 86.3763 6.37006 86.3763 6.25328C86.3763 6.15064 86.302 6.0834 86.1393 6.0834C86.072 6.0834 86.0225 6.09048 85.9978 6.09756V6.41607Z" fill="#404041"/>
</svg>
