<svg width="179" height="24" viewBox="0 0 179 24" fill="none" xmlns="http://www.w3.org/2000/svg">
<g clip-path="url(#clip0_3772_2202)">
<path d="M94.5032 4.68514C95.0268 4.0689 95.6663 3.59703 96.4324 3.27658C97.181 2.95613 98.0384 2.79414 98.9908 2.79414C99.7533 2.79414 100.463 2.88922 101.106 3.04769C101.763 3.23432 102.364 3.44913 102.913 3.70619L103.717 2.00183C103.074 1.68138 102.34 1.4384 101.535 1.26233C100.73 1.08626 99.8869 1.00879 99.0189 1.00879C97.694 1.00879 96.5168 1.2236 95.4977 1.65321C94.4786 2.08282 93.6106 2.68498 92.9148 3.4773C92.2049 4.26962 91.6707 5.19575 91.3088 6.28034C90.9468 7.36846 90.7606 8.56222 90.7606 9.86162C90.7606 11.6716 91.0417 13.2422 91.6321 14.5697C92.2225 15.8973 93.0905 16.9291 94.2677 17.6545C95.4309 18.3799 96.8928 18.7426 98.6464 18.7426C99.5952 18.7426 100.414 18.6757 101.11 18.5665C101.806 18.4609 102.463 18.2848 103.092 18.0419V16.2988C102.449 16.4854 101.795 16.6474 101.11 16.7812C100.428 16.915 99.7041 16.9819 98.9416 16.9819C97.5886 16.9819 96.4641 16.6861 95.568 16.1086C94.6718 15.5311 94.0006 14.7 93.5473 13.6401C93.0905 12.5661 92.8655 11.3195 92.8655 9.87218C92.8655 8.7735 93.0131 7.79455 93.2943 6.92124C93.5754 6.04793 93.976 5.29787 94.5137 4.68162L94.5032 4.68514Z" fill="#404041"/>
<path d="M114.235 6.16097C113.353 5.63628 112.32 5.36865 111.143 5.36865C109.966 5.36865 108.841 5.62219 107.955 6.14688C107.073 6.67157 106.388 7.43572 105.907 8.42876C105.425 9.4218 105.183 10.6296 105.183 12.0382C105.183 13.0982 105.33 14.0489 105.611 14.8835C105.907 15.7146 106.307 16.4118 106.831 16.9893C107.354 17.5668 107.969 17.9964 108.693 18.3028C109.417 18.6127 110.204 18.7606 111.062 18.7606C111.986 18.7606 112.816 18.6127 113.554 18.3028C114.291 17.9929 114.906 17.5633 115.427 16.9893C115.95 16.4259 116.337 15.7146 116.618 14.8835C116.899 14.0525 117.033 13.0982 117.033 12.0382C117.033 10.6296 116.79 9.4218 116.298 8.44284C115.803 7.44981 115.121 6.68566 114.235 6.16097ZM114.597 14.7321C114.33 15.4962 113.901 16.0878 113.325 16.5034C112.749 16.9189 112.014 17.1337 111.115 17.1337C110.215 17.1337 109.481 16.9189 108.904 16.5034C108.328 16.0878 107.913 15.4962 107.632 14.7321C107.351 13.9679 107.217 13.07 107.217 12.0347C107.217 10.4501 107.527 9.23164 108.156 8.33368C108.771 7.44981 109.762 7.00611 111.101 7.00611C112.011 7.00611 112.749 7.22092 113.322 7.62236C113.898 8.03788 114.313 8.61539 114.594 9.36545C114.875 10.1155 115.008 11.0029 115.008 12.0347C115.008 13.0665 114.875 13.9679 114.594 14.7321H114.597Z" fill="#404041"/>
<path d="M125.923 5.35449C125.333 5.35449 124.785 5.43548 124.265 5.59747C123.741 5.75945 123.274 5.99891 122.845 6.30879C122.43 6.61868 122.082 7.00603 121.801 7.46382H121.692L121.397 5.59747H119.816V18.514H121.77V11.7529C121.77 10.2105 122.065 9.03085 122.641 8.22444C123.217 7.40748 124.222 7.00251 125.653 7.00251C126.658 7.00251 127.406 7.27014 127.902 7.80892C128.397 8.34417 128.636 9.15058 128.636 10.2246V18.514H130.566V10.0908C130.566 8.43925 130.179 7.23493 129.388 6.48134C128.612 5.73128 127.448 5.35449 125.92 5.35449H125.923Z" fill="#404041"/>
<path d="M140.099 5.35449C139.509 5.35449 138.961 5.43548 138.427 5.59747C137.903 5.75945 137.436 5.99891 137.007 6.30879C136.592 6.61868 136.244 7.00603 135.963 7.46382H135.854L135.559 5.59747H133.978V18.514H135.946V11.7529C135.946 10.2105 136.241 9.03085 136.817 8.22444C137.394 7.40748 138.399 7.00251 139.829 7.00251C140.834 7.00251 141.582 7.27014 142.078 7.80892C142.573 8.34417 142.816 9.15058 142.816 10.2246V18.514H144.745V10.0908C144.745 8.43925 144.359 7.23493 143.568 6.48134C142.791 5.73128 141.628 5.35449 140.099 5.35449Z" fill="#404041"/>
<path d="M155.949 6.0799C155.158 5.59747 154.223 5.35449 153.123 5.35449C151.971 5.35449 150.969 5.63621 150.126 6.17146C149.268 6.7208 148.614 7.49903 148.144 8.52024C147.676 9.54145 147.448 10.7352 147.448 12.1297C147.448 13.5242 147.701 14.7602 148.21 15.7391C148.72 16.7322 149.43 17.4681 150.354 17.9788C151.278 18.4894 152.35 18.7429 153.594 18.7429C154.466 18.7429 155.214 18.676 155.857 18.5422C156.5 18.4225 157.143 18.2076 157.797 17.9118V16.1828C157.115 16.4645 156.472 16.6934 155.843 16.8413C155.214 16.9892 154.49 17.0702 153.675 17.0702C152.35 17.0702 151.32 16.6688 150.596 15.8765C149.873 15.0842 149.5 13.9327 149.472 12.4149H158.373V11.193C158.373 10.0274 158.159 8.99211 157.744 8.12232C157.33 7.24901 156.739 6.56586 155.952 6.08342L155.949 6.0799ZM149.497 10.8549C149.616 9.62244 149.992 8.66814 150.607 7.98499C151.222 7.30183 152.051 6.96378 153.099 6.96378C153.837 6.96378 154.452 7.12576 154.905 7.44621C155.372 7.76666 155.734 8.22444 155.963 8.81604C156.191 9.40764 156.311 10.0908 156.325 10.8549H149.497Z" fill="#404041"/>
<path d="M164.144 7.63637C164.745 7.24901 165.482 7.05886 166.379 7.05886C166.835 7.05886 167.317 7.12576 167.823 7.24549C168.347 7.3793 168.8 7.51312 169.19 7.6751L169.78 6.03765C169.404 5.85101 168.909 5.68903 168.308 5.55521C167.707 5.4214 167.088 5.35449 166.445 5.35449C165.268 5.35449 164.235 5.59747 163.314 6.0799C162.404 6.56234 161.68 7.30183 161.16 8.29487C160.636 9.28791 160.383 10.5627 160.383 12.1297C160.383 13.6967 160.626 14.8658 161.118 15.8448C161.613 16.8237 162.309 17.5491 163.191 18.0316C164.073 18.514 165.092 18.757 166.256 18.757C166.98 18.757 167.595 18.7183 168.129 18.595C168.663 18.4753 169.148 18.2992 169.573 18.0844V16.3413C169.116 16.5279 168.624 16.704 168.072 16.8519C167.524 16.9998 166.909 17.0667 166.224 17.0667C165.367 17.0667 164.643 16.866 164.08 16.4751C163.504 16.0878 163.075 15.5243 162.794 14.7848C162.513 14.0348 162.365 13.1474 162.365 12.1015C162.365 11.0028 162.513 10.0908 162.808 9.33721C163.103 8.58715 163.543 8.02372 164.133 7.63285L164.144 7.63637Z" fill="#404041"/>
<path d="M177.181 17.0668C176.847 17.1196 176.514 17.1478 176.19 17.1478C175.575 17.1478 175.08 16.9471 174.704 16.5457C174.328 16.1442 174.141 15.5385 174.141 14.7357V7.1294H177.93V5.60111H174.155V2.60791H172.978L172.202 5.41095L170.353 6.1751V7.12588H172.188V14.7709C172.188 15.7921 172.349 16.5809 172.683 17.1584C173.017 17.7359 173.46 18.1373 174.022 18.3803C174.584 18.6233 175.199 18.743 175.881 18.743C176.257 18.743 176.658 18.7043 177.058 18.6374C177.459 18.5705 177.782 18.4895 178.007 18.3838V16.8696C177.793 16.9506 177.512 17.0175 177.178 17.0703L177.181 17.0668Z" fill="#404041"/>
<path d="M48.0374 6.07275C52.0225 6.07275 54.8339 8.79128 54.8339 12.5698C54.8339 16.3482 52.026 19.0421 48.0374 19.0421C44.0489 19.0421 41.2902 16.3236 41.2902 12.5698C41.2902 8.81593 44.0524 6.07275 48.0374 6.07275ZM48.0374 15.7919C49.9351 15.7919 51.2318 14.5875 51.2318 12.5662C51.2318 10.5449 49.791 9.3195 48.0374 9.3195C46.2839 9.3195 44.8923 10.4992 44.8923 12.5662C44.8923 14.3939 46.1644 15.7919 48.0374 15.7919Z" fill="#404041"/>
<path d="M70.1451 0.959473C71.2732 0.959473 72.0885 1.7694 72.0885 2.83991C72.0885 3.96324 71.2732 4.77316 70.1451 4.77316C68.9222 4.77316 68.1772 3.96324 68.1772 2.83991C68.1772 1.71658 68.9925 0.959473 70.1451 0.959473ZM68.3916 6.3085H71.8741V18.8201H68.3916V6.3085Z" fill="#404041"/>
<path d="M73.4449 6.30869H75.824V3.39648H79.3065V6.30869H83.0702V9.55543H79.3065V13.6191C79.3065 15.1334 79.6439 15.7109 80.5787 15.7109C81.394 15.7109 82.0441 15.4221 82.7153 14.8939L84.4899 17.0983C83.6255 18.0139 81.9492 18.9611 80.2448 18.9611C77.6268 18.9611 75.8275 17.542 75.8275 14.6544V9.55191H73.4484V6.30517L73.4449 6.30869Z" fill="#404041"/>
<path d="M66.5923 7.84039C65.7383 7.0199 63.9707 5.95996 61.4545 5.95996C57.8736 5.95996 55.7686 7.44247 55.7686 9.87577C55.7686 13.6507 61.7708 13.7423 63.187 14.5769C63.4436 14.7212 63.5947 14.9184 63.5033 15.2107C63.2362 16.0488 59.8732 16.4573 57.3921 14.0522L55.368 16.4679C56.2676 17.6651 58.2566 19.0667 61.4791 19.0667C64.4732 19.0667 67.0632 17.8518 67.0632 15.0769C67.0632 12.5908 64.7544 11.5907 62.6986 11.0061C62.1152 10.8442 61.5494 10.7103 61.0609 10.5801C60.2527 10.3723 59.1668 10.1399 59.339 9.53419C59.6553 8.43199 63.2643 9.12219 64.5259 10.2807L66.5888 7.84039H66.5852H66.5923Z" fill="#404041"/>
<path d="M27.7359 6.34028H31.222V6.99174C31.8721 6.38958 33.0494 6.07617 34.0123 6.07617C37.8111 6.07617 40.1691 8.70315 40.1691 12.4147C40.1691 16.1263 37.7162 19.0667 33.9139 19.0667C32.712 19.0667 31.605 18.873 31.2185 18.4398V23.6938H27.7324V6.34028H27.7359ZM31.222 10.7491V14.7494C31.6086 15.3269 32.4484 15.8094 33.4359 15.8094C35.3863 15.8094 36.5636 14.5804 36.5636 12.6753C36.5636 10.4568 35.4566 9.32643 33.6292 9.32643C32.473 9.32643 31.6824 9.90395 31.2255 10.7491" fill="#404041"/>
<path d="M86.8586 7.3898C86.8586 8.01661 86.3666 8.50609 85.7305 8.50609C85.0945 8.50609 84.5955 8.01309 84.5955 7.3898C84.5955 6.76651 85.098 6.2876 85.7305 6.2876C86.3631 6.2876 86.8586 6.78059 86.8586 7.3898ZM84.8801 7.3898C84.8801 7.8828 85.2421 8.27015 85.7376 8.27015C86.2331 8.27015 86.5775 7.87928 86.5775 7.39684C86.5775 6.91441 86.2225 6.50945 85.7305 6.50945C85.2385 6.50945 84.8801 6.90737 84.8801 7.3898ZM85.5583 7.96731H85.3018V6.86511C85.4037 6.84398 85.5443 6.82989 85.7235 6.82989C85.9308 6.82989 86.0257 6.86511 86.1066 6.91089C86.1663 6.95666 86.212 7.0447 86.212 7.15386C86.212 7.27359 86.1171 7.36867 85.9836 7.41093V7.42501C86.089 7.46375 86.1522 7.54474 86.1839 7.69264C86.219 7.86167 86.2366 7.92857 86.2647 7.96731H85.9906C85.9554 7.92857 85.9379 7.82646 85.9027 7.69968C85.8816 7.57996 85.8149 7.52361 85.6743 7.52361H85.5548V7.96731H85.5583ZM85.5654 7.3405H85.6848C85.8254 7.3405 85.9414 7.29472 85.9414 7.17851C85.9414 7.07639 85.8676 7.00949 85.7059 7.00949C85.6392 7.00949 85.59 7.01653 85.5654 7.02357V7.3405Z" fill="#404041"/>
<path d="M4.55095 10.0484L5.58411 9.58705L10.2439 7.50589L11.263 7.05163L22.526 2.01953V8.08693L17.9716 10.0484L16.9419 9.58705L21.7037 7.53758V3.2978L12.2786 7.50589L11.263 7.96016L6.6208 10.0343L5.59114 10.492L2.30539 11.9605V13.0486L5.53843 14.4959L6.56808 14.9537L11.3333 17.0806L12.3454 17.5349L21.7037 21.7113V17.4292L16.9911 15.4009L18.0208 14.9396L22.526 16.8799V22.9895L11.3368 17.9927L10.3283 17.5419L5.5314 15.4009L4.50175 14.9396L1.47955 13.5909V11.4182L4.55095 10.0484Z" fill="#ED6430"/>
<path d="M12.3102 12.4816L16.9348 10.492L15.9016 10.0342L10.2087 12.4816L15.9544 14.9536L16.984 14.4958L12.3102 12.4816Z" fill="#ED6430"/>
<path d="M5.53833 14.4957L6.56798 14.9535L11.2629 12.9357L10.2122 12.4814L5.53833 14.4957Z" fill="#447099"/>
<path d="M6.62078 10.0342L5.59113 10.492L10.2123 12.4816L11.263 12.0308L6.62078 10.0342Z" fill="#447099"/>
<path d="M17.9715 10.0484L16.9419 9.58705L12.2785 7.50589L11.2629 7.05163L0 2.01953V8.08693L4.55086 10.0484L5.58403 9.58705L0.822318 7.53758V3.2978L10.2438 7.50589L11.2629 7.96016L15.9052 10.0343L16.9348 10.492L20.2206 11.9605V13.0486L16.984 14.4959L15.9544 14.9537L11.1891 17.0806L10.1771 17.5349L0.822318 21.7113V17.4292L5.53132 15.4009L4.50166 14.9396L0 16.8799V22.9895L11.1856 17.9927L12.1977 17.5419L16.9911 15.4009L18.0207 14.9396L21.0429 13.5909V11.4182L17.9715 10.0484Z" fill="#447099"/>
</g>
<defs>
<clipPath id="clip0_3772_2202">
<rect width="179" height="24" fill="white"/>
</clipPath>
</defs>
</svg>
